Coordinates
version=1
nRows=17
nColumns=40
inDegrees=yes

Units are S.I. units (second, meters, Newtons, ...)
Angles are in degrees.

endheader
time	pelvis_tilt	pelvis_list	pelvis_rotation	pelvis_tx	pelvis_ty	pelvis_tz	hip_flexion_r	hip_adduction_r	hip_rotation_r	knee_angle_r	knee_angle_r_beta	ankle_angle_r	subtalar_angle_r	mtp_angle_r	hip_flexion_l	hip_adduction_l	hip_rotation_l	knee_angle_l	knee_angle_l_beta	ankle_angle_l	subtalar_angle_l	mtp_angle_l	lumbar_extension	lumbar_bending	lumbar_rotation	arm_flex_r	arm_add_r	arm_rot_r	elbow_flex_r	pro_sup_r	wrist_flex_r	wrist_dev_r	arm_flex_l	arm_add_l	arm_rot_l	elbow_flex_l	pro_sup_l	wrist_flex_l	wrist_dev_l
     44.36750000	     -5.88682121	     -5.50237963	     -4.22150602	      1.15482972	      0.90466367	      0.37355983	     25.25012853	     -6.74760391	     -0.28365926	     62.21180517	     62.21180517	      4.04644407	     -9.24802725	     -5.41558828	     23.53670993	     -3.30989194	     -4.48904424	     37.94592977	     37.94592977	     23.74408435	    -18.68859319	     11.87511443	    -12.09286673	      7.47047632	      2.16559539	     11.04715864	    -12.20131779	     -8.50039183	     32.45630539	     46.84565754	      0.00000000	      0.00000000	     23.41191533	    -16.75229498	     19.51198935	     37.67174837	     45.01730349	      0.00000000	      0.00000000
     44.38957143	     -5.92663326	     -5.49689235	     -4.81425790	      1.15290984	      0.90580571	      0.37311802	     27.06351993	     -6.48146794	      0.42244685	     63.39992744	     63.39992744	      3.26370361	     -9.38936124	     -4.81948851	     22.97064627	     -3.40631084	     -5.05036261	     37.31193189	     37.31193189	     23.74076978	    -18.65082676	     11.87403525	    -12.26393409	      7.68951920	      1.97495081	      7.11684419	    -12.24014843	     -8.53959365	     30.69157302	     46.87926977	      0.00000000	      0.00000000	     25.39157461	    -17.23576297	     18.87174381	     39.05536844	     45.13095627	      0.00000000	      0.00000000
     44.41164286	     -5.97280258	     -5.52929298	     -5.43248950	      1.15100153	      0.90759968	      0.37317848	     28.59122224	     -6.15780693	      1.01604216	     63.64004815	     63.64004815	      2.95758830	     -9.18392750	     -4.22976097	     22.26657808	     -3.55802509	     -5.62033189	     36.41956053	     36.41956053	     23.58411818	    -18.58739415	     11.83705102	    -12.38619573	      7.92413995	      1.95177621	      3.24546904	    -12.30159494	     -8.58337565	     29.09302762	     46.90717689	      0.00000000	      0.00000000	     27.40755427	    -17.68481801	     17.97660104	     40.76854228	     45.27389804	      0.00000000	      0.00000000
     44.43371429	     -6.08370464	     -5.59263419	     -6.07505696	      1.14908532	      0.90987578	      0.37379173	     29.86631101	     -5.82361542	      1.42475864	     62.89049351	     62.89049351	      3.04037159	     -8.82846594	     -3.92510194	     21.49130740	     -3.78149484	     -6.23400234	     35.26731286	     35.26731286	     23.28780511	    -18.49266333	     11.70504271	    -12.49099184	      8.14503259	      1.89431019	     -0.51231067	    -12.28912597	     -8.64793651	     27.85650511	     46.92126018	      0.00000000	      0.00000000	     29.29630721	    -18.26428710	     16.75734181	     42.65964890	     45.44764264	      0.00000000	      0.00000000
     44.45578571	     -6.29648310	     -5.72342396	     -6.77888813	      1.14720668	      0.91233886	      0.37495579	     30.88708927	     -5.43747028	      1.63110729	     61.08085284	     61.08085284	      3.05845856	     -8.59698000	     -4.88415207	     20.69477789	     -4.15009175	     -6.99981942	     33.88328737	     33.88328737	     22.42486122	    -18.41000220	     10.22972808	    -12.49922661	      8.41585254	      1.32714113	     -4.07460722	    -12.24121187	     -8.60848838	     27.96281089	     46.80194202	      0.00000000	      0.00000000	     30.09696266	    -18.63011463	     11.39364977	     45.81130340	     46.09516561	      0.00000000	      0.00000000
     44.47785714	     -6.61616079	     -5.79213518	     -7.48241711	      1.14524067	      0.91492052	      0.37646621	     31.70297924	     -5.12841104	      1.68963793	     58.34962950	     58.34962950	      3.62727686	     -8.16036813	     -5.01875236	     19.99956794	     -4.43188698	     -7.68114246	     32.49117252	     32.49117252	     22.13541291	    -18.17525132	     10.50689411	    -12.26997680	      8.60128671	      0.87300969	     -6.97430939	    -12.18859637	     -8.60435144	     27.01550271	     46.81206856	      0.00000000	      0.00000000	     31.88435889	    -19.67127235	     10.74169378	     46.87234049	     46.18571211	      0.00000000	      0.00000000
     44.49992857	     -6.87947785	     -5.76661633	     -8.33736933	      1.14338692	      0.91758964	      0.37849135	     32.06301040	     -4.93221816	      1.63588842	     54.53989466	     54.53989466	      3.53525795	     -7.75226439	     -7.51566141	     19.10704385	     -4.65432959	     -8.59368309	     30.86394192	     30.86394192	     21.39829577	    -18.05658829	      9.79583497	    -12.27379640	      8.55775055	      1.50191585	    -10.72308662	    -12.11711251	     -8.67021537	     27.50207772	     46.73889486	      0.00000000	      0.00000000	     33.39182917	    -19.73323614	      8.16076709	     50.42553800	     46.48726322	      0.00000000	      0.00000000
     44.52200000	     -7.13237855	     -5.80851967	     -9.15437121	      1.14172868	      0.92030631	      0.38089068	     31.87629667	     -4.64939363	      1.33285671	     49.63332039	     49.63332039	      2.89969212	     -7.61335497	    -11.18544964	     18.10907569	     -4.92459904	     -9.46222316	     29.08825061	     29.08825061	     20.47974507	    -17.95213837	      8.70136694	    -12.18646986	      8.60960141	      1.03390589	    -13.58483964	    -12.15848565	     -8.33392388	     28.82396199	     46.58829168	      0.00000000	      0.00000000	     34.37204836	    -20.39397890	      4.42722135	     52.94003273	     46.86212869	      0.00000000	      0.00000000
     44.54407143	     -7.47524208	     -5.77647334	     -9.99540963	      1.14011423	      0.92255753	      0.38363730	     31.54194469	     -4.42655425	      0.80242875	     44.30452920	     44.30452920	      3.13482432	     -6.16778716	    -11.67498134	     17.29210740	     -5.14501082	    -10.35237640	     27.49694686	     27.49694686	     19.86364266	    -17.75529333	      8.26892921	    -11.95377800	      8.55316036	      1.12209086	    -16.15724647	    -12.07666262	     -7.98222574	     29.24386977	     46.49496921	      0.00000000	      0.00000000	     35.85587315	    -20.91576789	      2.49889302	     55.06295700	     47.06391059	      0.00000000	      0.00000000
     44.56614286	     -7.74799644	     -5.67912721	    -10.81720402	      1.13871358	      0.92453452	      0.38673477	     30.79990978	     -4.22109001	      0.07651198	     38.51388255	     38.51388255	      3.37440138	     -3.92634284	    -10.94059045	     16.42991234	     -5.28240590	    -11.25011674	     25.99256226	     25.99256226	     19.50871229	    -17.46371814	      8.31572954	    -11.74150226	      8.36960645	      1.30205437	    -18.14098555	    -11.83086012	     -7.88897998	     29.14474171	     46.46709618	      0.00000000	      0.00000000	     37.59027747	    -21.51564094	      1.49895386	     56.61905080	     47.18142910	      0.00000000	      0.00000000
     44.58821429	     -8.31240412	     -5.51630273	    -11.60644638	      1.13729336	      0.92553551	      0.39031383	     30.13688248	     -3.79065370	     -0.47346710	     32.52981095	     32.52981095	      3.07027966	     -1.89695285	     -9.68319764	     16.07077779	     -5.45638299	    -12.08875684	     24.83477304	     24.83477304	     19.25213706	    -17.19409649	      8.39255972	    -11.06063398	      8.15319077	      1.28485270	    -19.60127009	    -11.48910536	     -7.86319704	     29.04116385	     46.45320133	      0.00000000	      0.00000000	     39.18778877	    -22.31766281	      0.80831680	     57.67785508	     47.26517255	      0.00000000	      0.00000000
     44.61028571	     -8.55396825	     -5.23599464	    -12.32124238	      1.13640858	      0.92637156	      0.39402393	     28.94282042	     -3.51772268	     -1.17895164	     26.58939842	     26.58939842	      2.48357345	      0.91695630	     -8.03769898	     15.40641178	     -5.43931126	    -12.98104525	     23.77368635	     23.77368635	     19.03542022	    -16.91922873	      8.28520739	    -10.70711143	      7.78266662	      1.46685070	    -20.89658642	    -11.11018141	     -7.84234892	     29.15327562	     46.43145289	      0.00000000	      0.00000000	     40.79913586	    -22.87423911	     -0.00443487	     59.00538396	     47.36201512	      0.00000000	      0.00000000
     44.63235714	     -8.37221003	     -5.02856276	    -12.95101219	      1.13642412	      0.92715274	      0.39775534	     27.55665533	     -3.52866236	     -2.97457317	     21.95391435	     21.95391435	      3.98885343	      6.66029646	     -0.85769957	     13.99968329	     -5.33607759	    -13.91947461	     22.21254063	     22.21254063	     17.71932321	    -16.82203823	      5.01649797	    -10.89790395	      7.51065110	      1.43110271	    -23.25918937	    -11.14790488	     -7.70470473	     33.02881603	     46.20542011	      0.00000000	      0.00000000	     41.08081019	    -22.54990379	     -4.70444884	     62.98927469	     47.76852848	      0.00000000	      0.00000000
     44.65442857	     -8.45589797	     -4.71972301	    -13.48940901	      1.13634547	      0.92708712	      0.40205539	     26.36799782	     -3.16396847	     -3.61406429	     17.45473841	     17.45473841	      3.04581512	      9.40340556	      1.15803408	     13.28492527	     -5.25212885	    -14.63745498	     21.43835506	     21.43835506	     17.72582927	    -16.51917214	      4.79474401	    -10.55672184	      7.09593546	      1.65340230	    -23.95560166	    -10.75115227	     -7.47185971	     32.96674344	     46.18323851	      0.00000000	      0.00000000	     42.52114917	    -22.89996871	     -5.06962529	     64.01356930	     47.82105748	      0.00000000	      0.00000000
     44.67650000	     -8.47272149	     -4.35293928	    -13.99509709	      1.13658503	      0.92670753	      0.40643664	     25.71368233	     -3.02269414	     -4.66332508	     14.79304543	     14.79304543	      3.97352033	     12.78451185	      7.51708606	     12.44859849	     -5.08004168	    -15.41492755	     20.51768391	     20.51768391	     16.99142272	    -16.40002220	      2.61141816	    -10.28622884	      6.65115938	      1.63424654	    -24.57331086	    -10.66510158	     -6.54530444	     34.06679304	     46.05287411	      0.00000000	      0.00000000	     43.28785526	    -23.08915603	     -7.00170988	     66.13477994	     47.98139321	      0.00000000	      0.00000000
     44.69857143	     -8.49723097	     -3.95857032	    -14.36198831	      1.13711281	      0.92612716	      0.41107477	     25.01839125	     -2.76991888	     -4.88983228	     12.47778689	     12.47778689	      3.16187427	     14.31822814	      8.53781115	     11.79254424	     -4.88744053	    -15.98437470	     19.96734308	     19.96734308	     17.10222027	    -16.11237184	      2.43210996	     -9.88159074	      6.16132584	      1.81338643	    -24.67993194	    -10.30054798	     -6.35393969	     34.07317506	     46.03728137	      0.00000000	      0.00000000	     44.40236788	    -23.21212697	     -7.29834332	     67.00296620	     48.02308124	      0.00000000	      0.00000000
     44.72064286	     -8.41255106	     -3.70622289	    -14.67882616	      1.13805005	      0.92569371	      0.41590689	     24.37650743	     -2.47875511	     -5.11962006	     11.13081836	     11.13081836	      2.72947619	     15.63801744	      9.27352117	     10.92880818	     -4.80947545	    -16.53585062	     19.33979117	     19.33979117	     17.14779073	    -15.74308511	      1.99116987	     -9.66809916	      5.87711158	      2.07300589	    -24.62771294	    -10.08424781	     -6.14481558	     34.09283004	     46.02096855	      0.00000000	      0.00000000	     45.23784425	    -23.21773315	     -7.95825532	     68.12880796	     48.09127889	      0.00000000	      0.00000000
